<mxfile host="app.diagrams.net" modified="2021-10-01T13:12:58.016Z" agent="5.0 (X11; Linux x86_64) AppleWebKit/537.36 (KHTML, like Gecko) Chrome/93.0.4577.82 Safari/537.36" etag="xXnHSMs3_muipk-08uSF" version="15.4.0" type="github">
  <diagram id="-JW1-EUzMHlYpkXFucI7" name="Page-1">
    <mxGraphModel dx="1390" dy="783" grid="1" gridSize="10" guides="1" tooltips="1" connect="1" arrows="1" fold="1" page="1" pageScale="1" pageWidth="850" pageHeight="1100" math="0" shadow="0">
      <root>
        <mxCell id="0" />
        <mxCell id="1" parent="0" />
        <mxCell id="WoRLdTKh1mXa45w7H0oh-2" value="client" style="rounded=0;whiteSpace=wrap;html=1;" vertex="1" parent="1">
          <mxGeometry x="170" y="190" width="120" height="60" as="geometry" />
        </mxCell>
        <mxCell id="WoRLdTKh1mXa45w7H0oh-3" value="file server" style="rounded=0;whiteSpace=wrap;html=1;" vertex="1" parent="1">
          <mxGeometry x="520" y="190" width="120" height="60" as="geometry" />
        </mxCell>
        <mxCell id="WoRLdTKh1mXa45w7H0oh-9" value="s" style="endArrow=classic;html=1;rounded=0;edgeStyle=orthogonalEdgeStyle;" edge="1" parent="1" source="WoRLdTKh1mXa45w7H0oh-2" target="WoRLdTKh1mXa45w7H0oh-3">
          <mxGeometry relative="1" as="geometry">
            <mxPoint x="360" y="219.5" as="sourcePoint" />
            <mxPoint x="460" y="219.5" as="targetPoint" />
          </mxGeometry>
        </mxCell>
        <mxCell id="WoRLdTKh1mXa45w7H0oh-10" value="SEND FILES" style="edgeLabel;resizable=0;html=1;align=center;verticalAlign=middle;" connectable="0" vertex="1" parent="WoRLdTKh1mXa45w7H0oh-9">
          <mxGeometry relative="1" as="geometry" />
        </mxCell>
        <mxCell id="WoRLdTKh1mXa45w7H0oh-13" value="web server" style="rounded=0;whiteSpace=wrap;html=1;" vertex="1" parent="1">
          <mxGeometry x="520" y="300" width="120" height="60" as="geometry" />
        </mxCell>
        <mxCell id="WoRLdTKh1mXa45w7H0oh-14" value="" style="endArrow=classic;html=1;rounded=0;edgeStyle=orthogonalEdgeStyle;" edge="1" parent="1" source="WoRLdTKh1mXa45w7H0oh-3" target="WoRLdTKh1mXa45w7H0oh-16">
          <mxGeometry relative="1" as="geometry">
            <mxPoint x="370" y="400" as="sourcePoint" />
            <mxPoint x="710" y="210" as="targetPoint" />
          </mxGeometry>
        </mxCell>
        <mxCell id="WoRLdTKh1mXa45w7H0oh-16" value="DATABASE" style="shape=cylinder3;whiteSpace=wrap;html=1;boundedLbl=1;backgroundOutline=1;size=15;" vertex="1" parent="1">
          <mxGeometry x="740" y="175" width="60" height="90" as="geometry" />
        </mxCell>
        <mxCell id="WoRLdTKh1mXa45w7H0oh-27" value="" style="endArrow=classic;html=1;rounded=0;edgeStyle=orthogonalEdgeStyle;" edge="1" parent="1" source="WoRLdTKh1mXa45w7H0oh-16" target="WoRLdTKh1mXa45w7H0oh-13">
          <mxGeometry relative="1" as="geometry">
            <mxPoint x="660" y="300" as="sourcePoint" />
            <mxPoint x="760" y="300" as="targetPoint" />
            <Array as="points">
              <mxPoint x="770" y="330" />
            </Array>
          </mxGeometry>
        </mxCell>
        <mxCell id="WoRLdTKh1mXa45w7H0oh-29" value="" style="endArrow=classic;html=1;rounded=0;edgeStyle=orthogonalEdgeStyle;" edge="1" parent="1" source="WoRLdTKh1mXa45w7H0oh-13" target="WoRLdTKh1mXa45w7H0oh-31">
          <mxGeometry relative="1" as="geometry">
            <mxPoint x="370" y="400" as="sourcePoint" />
            <mxPoint x="300" y="330" as="targetPoint" />
          </mxGeometry>
        </mxCell>
        <mxCell id="WoRLdTKh1mXa45w7H0oh-31" value="web client" style="rounded=0;whiteSpace=wrap;html=1;" vertex="1" parent="1">
          <mxGeometry x="170" y="300" width="120" height="60" as="geometry" />
        </mxCell>
      </root>
    </mxGraphModel>
  </diagram>
</mxfile>
